<svg width="622" height="642" viewBox="0 0 622 642" fill="none" xmlns="http://www.w3.org/2000/svg">
<path fill-rule="evenodd" clip-rule="evenodd" d="M364.165 239.621C381.463 230.987 403.473 218.279 425.51 200.866C430.156 210.524 430.665 218.952 428.271 225.757C426.575 230.553 423.378 234.725 419.175 238.043C414.622 241.63 408.938 244.241 402.653 245.652C390.729 248.341 376.807 246.771 364.165 239.621ZM367.164 328.079L390.062 341.318C343.308 367.546 330.598 416.248 315.5 463.685C300.404 416.248 287.692 367.546 240.94 341.318L263.838 328.079C266.053 327.241 267.947 325.723 269.247 323.742C270.547 321.761 271.187 319.419 271.076 317.051C268.978 272.626 280.963 252.98 297.128 240.645C302.926 236.226 309.255 234.008 315.5 234.008C321.745 234.008 328.074 236.226 333.874 240.645C350.039 252.98 362.024 272.626 359.926 317.051C359.815 319.419 360.455 321.761 361.755 323.742C363.056 325.723 364.949 327.241 367.164 328.079ZM315.5 38C341.968 38.7113 368.502 43.8543 391.53 53.8593C407.477 60.7966 422.356 69.9601 435.83 80.9179C441.914 85.8647 446.924 90.6437 452.443 96.1452C467.329 96.6602 489.083 80.1085 499.182 64.6209C481.801 121.655 402.487 189.007 347.578 214.779C347.555 214.769 347.54 214.756 347.523 214.745C337.669 207.213 326.585 203.447 315.5 203.447C304.415 203.447 293.334 207.213 283.479 214.745C283.462 214.754 283.447 214.771 283.424 214.779C228.513 189.007 149.201 121.655 131.82 64.6209C141.918 80.1085 163.672 96.6602 178.557 96.1452C184.078 90.6455 189.088 85.8647 195.171 80.9179C208.644 69.9601 223.524 60.7966 239.47 53.8593C262.5 43.8543 289.034 38.7113 315.5 38ZM266.835 239.621C249.539 230.987 227.527 218.279 205.492 200.866C200.846 210.524 200.337 218.952 202.729 225.757C204.427 230.553 207.624 234.725 211.826 238.043C216.38 241.63 222.065 244.241 228.349 245.652C240.273 248.341 254.193 246.771 266.835 239.621Z" fill="white"/>
<path fill-rule="evenodd" clip-rule="evenodd" d="M449.644 179.53C461.776 167.276 472.465 153.713 481.06 141.61L485.426 149.834C499.48 177.977 506.782 206.007 506.782 237.553L506.752 287.61L507.015 313.559C508.033 377.264 521.805 441.718 553 500.703L487.731 448.023L441.548 523.035L393.031 477.32L315.5 603.253L237.969 477.321L189.453 523.037L143.271 448.025L78 500.705C109.195 441.72 122.967 377.266 123.986 313.561L124.25 287.611L124.22 237.554C124.22 206.007 131.52 177.977 145.578 149.836L149.942 141.612C158.537 153.715 169.225 167.276 181.358 179.532L177.569 187.409C170.208 202.708 167.771 219.814 173.505 236.083C177.201 246.561 183.948 255.548 192.645 262.407C201.089 269.069 211.083 273.56 221.546 275.918C228.362 277.454 235.306 278.086 242.205 277.871C240.595 287.004 239.892 296.477 239.847 306.129L178.278 341.723L225.789 368.38C229.587 370.511 233.202 372.952 236.597 375.679C275.768 410.881 299.318 515.019 315.502 565.885C331.688 515.019 355.236 410.881 394.408 375.679C397.804 372.952 401.419 370.51 405.217 368.38L452.728 341.723L391.157 306.129C391.112 296.477 390.409 287.004 388.799 277.871C395.698 278.086 402.642 277.454 409.458 275.918C419.921 273.56 429.917 269.069 438.359 262.407C447.054 255.548 453.802 246.561 457.497 236.083C463.233 219.814 460.793 202.71 453.435 187.409L449.646 179.532L449.644 179.53Z" fill="white"/>
</svg>
