<svg width="650" height="642" viewBox="0 0 650 642" fill="none" xmlns="http://www.w3.org/2000/svg">
<g clip-path="url(#clip0_2055_6)">
<path d="M66.1757 296.472C66.1757 296.472 326.368 189.688 416.608 152.088C451.2 137.048 568.512 88.9199 568.512 88.9199C568.512 88.9199 622.656 67.864 618.144 119C616.64 140.056 604.608 213.752 592.576 293.464C574.528 406.264 554.976 529.592 554.976 529.592C554.976 529.592 551.968 564.184 526.4 570.2C500.832 576.216 458.72 549.144 451.2 543.128C445.184 538.616 338.4 470.936 299.296 437.848C288.768 428.824 276.736 410.776 300.8 389.72C354.944 340.088 419.616 278.424 458.72 239.32C476.768 221.272 494.816 179.16 419.616 230.296C312.832 303.992 207.552 373.176 207.552 373.176C207.552 373.176 183.488 388.216 138.368 374.68C93.2477 361.144 40.6077 343.096 40.6077 343.096C40.6077 343.096 4.51173 320.536 66.1757 296.472Z" fill="white"/>
</g>
<defs>
<clipPath id="clip0_2055_6">
<rect width="650" height="642" fill="white"/>
</clipPath>
</defs>
</svg>
